<mxfile host="Electron" agent="Mozilla/5.0 (Windows NT 10.0; Win64; x64) AppleWebKit/537.36 (KHTML, like Gecko) draw.io/24.7.17 Chrome/128.0.6613.36 Electron/32.0.1 Safari/537.36" version="24.7.17">
  <diagram id="l3ZlbID_Ai5RqMLWJttY" name="Page-1">
    <mxGraphModel dx="1036" dy="606" grid="1" gridSize="10" guides="1" tooltips="1" connect="1" arrows="1" fold="1" page="1" pageScale="1" pageWidth="850" pageHeight="1100" math="0" shadow="0">
      <root>
        <mxCell id="0" />
        <mxCell id="1" parent="0" />
        <mxCell id="wOyHLg6UhY239hFl0Sp0-6" style="edgeStyle=orthogonalEdgeStyle;rounded=0;orthogonalLoop=1;jettySize=auto;html=1;entryX=0;entryY=0.5;entryDx=0;entryDy=0;" edge="1" parent="1" source="wOyHLg6UhY239hFl0Sp0-1" target="wOyHLg6UhY239hFl0Sp0-2">
          <mxGeometry relative="1" as="geometry">
            <Array as="points">
              <mxPoint x="230" y="130" />
            </Array>
          </mxGeometry>
        </mxCell>
        <mxCell id="wOyHLg6UhY239hFl0Sp0-9" style="edgeStyle=orthogonalEdgeStyle;rounded=0;orthogonalLoop=1;jettySize=auto;html=1;" edge="1" parent="1" source="wOyHLg6UhY239hFl0Sp0-1" target="wOyHLg6UhY239hFl0Sp0-8">
          <mxGeometry relative="1" as="geometry" />
        </mxCell>
        <mxCell id="wOyHLg6UhY239hFl0Sp0-1" value="USER" style="ellipse;whiteSpace=wrap;html=1;" vertex="1" parent="1">
          <mxGeometry x="170" y="200" width="120" height="80" as="geometry" />
        </mxCell>
        <mxCell id="wOyHLg6UhY239hFl0Sp0-7" style="edgeStyle=orthogonalEdgeStyle;rounded=0;orthogonalLoop=1;jettySize=auto;html=1;entryX=0.5;entryY=0;entryDx=0;entryDy=0;" edge="1" parent="1" source="wOyHLg6UhY239hFl0Sp0-2" target="wOyHLg6UhY239hFl0Sp0-4">
          <mxGeometry relative="1" as="geometry" />
        </mxCell>
        <mxCell id="wOyHLg6UhY239hFl0Sp0-2" value="HAS" style="rhombus;whiteSpace=wrap;html=1;" vertex="1" parent="1">
          <mxGeometry x="330" y="90" width="80" height="80" as="geometry" />
        </mxCell>
        <mxCell id="wOyHLg6UhY239hFl0Sp0-4" value="ROLE" style="ellipse;whiteSpace=wrap;html=1;" vertex="1" parent="1">
          <mxGeometry x="480" y="200" width="120" height="80" as="geometry" />
        </mxCell>
        <mxCell id="wOyHLg6UhY239hFl0Sp0-11" style="edgeStyle=orthogonalEdgeStyle;rounded=0;orthogonalLoop=1;jettySize=auto;html=1;entryX=1;entryY=0.5;entryDx=0;entryDy=0;" edge="1" parent="1" source="wOyHLg6UhY239hFl0Sp0-8" target="wOyHLg6UhY239hFl0Sp0-10">
          <mxGeometry relative="1" as="geometry" />
        </mxCell>
        <mxCell id="wOyHLg6UhY239hFl0Sp0-8" value="HAS" style="rhombus;whiteSpace=wrap;html=1;" vertex="1" parent="1">
          <mxGeometry x="330" y="330" width="80" height="80" as="geometry" />
        </mxCell>
        <mxCell id="wOyHLg6UhY239hFl0Sp0-14" style="edgeStyle=orthogonalEdgeStyle;rounded=0;orthogonalLoop=1;jettySize=auto;html=1;entryX=0.5;entryY=0;entryDx=0;entryDy=0;" edge="1" parent="1" source="wOyHLg6UhY239hFl0Sp0-10" target="wOyHLg6UhY239hFl0Sp0-13">
          <mxGeometry relative="1" as="geometry">
            <mxPoint x="160" y="641.6000366210938" as="targetPoint" />
          </mxGeometry>
        </mxCell>
        <mxCell id="wOyHLg6UhY239hFl0Sp0-10" value="COURSE" style="ellipse;whiteSpace=wrap;html=1;" vertex="1" parent="1">
          <mxGeometry x="140" y="430" width="120" height="80" as="geometry" />
        </mxCell>
        <mxCell id="wOyHLg6UhY239hFl0Sp0-12" value="BATCH" style="ellipse;whiteSpace=wrap;html=1;" vertex="1" parent="1">
          <mxGeometry x="500" y="560" width="120" height="80" as="geometry" />
        </mxCell>
        <mxCell id="wOyHLg6UhY239hFl0Sp0-13" value="HAS" style="rhombus;whiteSpace=wrap;html=1;" vertex="1" parent="1">
          <mxGeometry x="260" y="590" width="80" height="80" as="geometry" />
        </mxCell>
      </root>
    </mxGraphModel>
  </diagram>
</mxfile>
